<svg width="1200" height="1200" viewBox="0 0 1200 1200" fill="none" xmlns="http://www.w3.org/2000/svg">
<rect width="1200" height="1200" fill="#1E1E2E"/>
<path d="M159.398 684.92V462.2H211.622V666.872L231.206 686.456H306.47L326.054 666.872V462.2H378.278V684.92L332.198 731H205.478L159.398 684.92ZM543.179 731L500.938 672.632L458.699 731H401.483L472.907 633.848L403.403 539.768H460.619L500.938 595.832L541.259 539.768H598.475L529.355 634.616L600.395 731H543.179ZM736.07 681.08H606.278V628.472L725.702 462.2H788.294V636.536H820.934V681.08H788.294V731H736.07V681.08ZM738.374 638.072V520.568H736.838L657.35 632.696V638.072H738.374ZM847.853 689.528V655.352H900.077V673.016L913.517 686.456H978.797L992.237 673.016V611.192L970.349 633.08H885.485L844.013 591.608V503.672L885.485 462.2H1002.99L1044.46 503.672V689.528L1002.99 731H889.325L847.853 689.528ZM967.277 588.536L992.237 563.576V520.184L978.797 506.744H909.677L896.237 520.184V575.096L909.677 588.536H967.277Z" fill="#CDD6F4"/>
</svg>
